<svg xmlns="http://www.w3.org/2000/svg" xmlns:xlink="http://www.w3.org/1999/xlink" width="64" zoomAndPan="magnify" viewBox="0 0 48 48" height="64" preserveAspectRatio="xMidYMid meet" version="1.0"><defs><g/><clipPath id="2882bfa193"><path d="M 0.488281 0 L 47.507812 0 L 47.507812 47.019531 L 0.488281 47.019531 Z M 0.488281 0 " clip-rule="nonzero"/></clipPath><clipPath id="06be20048c"><rect x="0" width="39" y="0" height="34"/></clipPath></defs><g clip-path="url(#2882bfa193)"><path fill="#ffffff" d="M 0.488281 0 L 47.511719 0 L 47.511719 47.019531 L 0.488281 47.019531 Z M 0.488281 0 " fill-opacity="1" fill-rule="nonzero"/><path fill="#d9d9d9" d="M 0.488281 0 L 47.511719 0 L 47.511719 47.019531 L 0.488281 47.019531 Z M 0.488281 0 " fill-opacity="1" fill-rule="nonzero"/></g><g transform="matrix(1, 0, 0, 1, 5, 11)"><g clip-path="url(#06be20048c)"><g fill="#000000" fill-opacity="1"><g transform="translate(1.461027, 23.979361)"><g><path d="M 6.890625 -6.890625 L 6.953125 -6.890625 L 8.546875 -22.375 L 14.59375 -22.375 L 16.234375 -6.890625 L 16.296875 -6.890625 L 17.640625 -22.375 L 23.21875 -22.375 L 20.578125 0 L 13.28125 0 L 11.71875 -12.96875 L 11.65625 -12.96875 L 9.9375 0 L 2.59375 0 L 0 -22.375 L 5.578125 -22.375 Z M 6.890625 -6.890625 "/></g></g></g><g fill="#000000" fill-opacity="1"><g transform="translate(24.078449, 23.979361)"><g><path d="M 6.734375 -22.84375 C 10.972656 -22.84375 13.09375 -21.242188 13.09375 -18.046875 L 13.09375 -15.828125 L 7.921875 -15.828125 L 7.921875 -17.765625 C 7.921875 -18.765625 7.546875 -19.265625 6.796875 -19.265625 C 6.148438 -19.265625 5.828125 -18.804688 5.828125 -17.890625 L 5.828125 -16.765625 C 5.828125 -16.347656 5.972656 -15.953125 6.265625 -15.578125 C 6.554688 -15.210938 6.867188 -14.914062 7.203125 -14.6875 C 7.535156 -14.457031 8.066406 -14.125 8.796875 -13.6875 C 9.703125 -13.144531 10.472656 -12.613281 11.109375 -12.09375 C 11.742188 -11.570312 12.296875 -10.894531 12.765625 -10.0625 C 13.234375 -9.238281 13.46875 -8.265625 13.46875 -7.140625 L 13.46875 -5.140625 C 13.46875 -3.023438 12.867188 -1.5625 11.671875 -0.75 C 10.472656 0.0585938 8.828125 0.46875 6.734375 0.46875 C 4.441406 0.46875 2.820312 0.0078125 1.875 -0.90625 C 0.9375 -1.820312 0.46875 -3.242188 0.46875 -5.171875 L 0.46875 -8.140625 L 5.859375 -8.140625 L 5.859375 -4.453125 C 5.859375 -3.546875 6.179688 -3.09375 6.828125 -3.09375 C 7.179688 -3.09375 7.445312 -3.234375 7.625 -3.515625 C 7.800781 -3.804688 7.890625 -4.285156 7.890625 -4.953125 L 7.890625 -6.140625 C 7.890625 -6.703125 7.738281 -7.203125 7.4375 -7.640625 C 7.132812 -8.078125 6.800781 -8.429688 6.4375 -8.703125 C 6.070312 -8.972656 5.554688 -9.320312 4.890625 -9.75 C 3.992188 -10.289062 3.242188 -10.800781 2.640625 -11.28125 C 2.046875 -11.757812 1.53125 -12.382812 1.09375 -13.15625 C 0.65625 -13.925781 0.4375 -14.847656 0.4375 -15.921875 L 0.4375 -17.421875 C 0.4375 -21.035156 2.535156 -22.84375 6.734375 -22.84375 Z M 6.734375 -22.84375 "/></g></g></g></g></g></svg>